<svg width="35" height="35" viewBox="0 0 35 35" fill="none" xmlns="http://www.w3.org/2000/svg">
<circle cx="17.3821" cy="17.382" r="16" stroke="#0063A8" stroke-width="2.76396" stroke-dasharray="0.98 8.39"/>
<mask id="path-2-inside-1_4492_1164" fill="white">
<path fill-rule="evenodd" clip-rule="evenodd" d="M16.771 6.19443L9.86521 19.3492C9.51566 20.0151 9.99858 20.814 10.7506 20.814H14.4335L14.2536 27.3272C14.195 29.4454 17.0387 30.1882 18.0236 28.3121L24.9294 15.1573C25.279 14.4914 24.796 13.6924 24.044 13.6924H20.3611L20.5411 7.17929C20.5996 5.06112 17.7559 4.31826 16.771 6.19443Z"/>
</mask>
<path fill-rule="evenodd" clip-rule="evenodd" d="M16.771 6.19443L9.86521 19.3492C9.51566 20.0151 9.99858 20.814 10.7506 20.814H14.4335L14.2536 27.3272C14.195 29.4454 17.0387 30.1882 18.0236 28.3121L24.9294 15.1573C25.279 14.4914 24.796 13.6924 24.044 13.6924H20.3611L20.5411 7.17929C20.5996 5.06112 17.7559 4.31826 16.771 6.19443Z" fill="#FFDF4E"/>
<path d="M9.86521 19.3492L11.094 19.9943H11.094L9.86521 19.3492ZM16.771 6.19443L17.9998 6.83952V6.83952L16.771 6.19443ZM14.4335 20.814L15.8208 20.8524L15.8603 19.4262H14.4335V20.814ZM14.2536 27.3272L12.8662 27.2889V27.2889L14.2536 27.3272ZM18.0236 28.3121L16.7948 27.667V27.667L18.0236 28.3121ZM24.9294 15.1573L26.1582 15.8023V15.8023L24.9294 15.1573ZM20.3611 13.6924L18.9738 13.6541L18.9344 15.0803H20.3611V13.6924ZM20.5411 7.17929L21.9284 7.21762V7.21762L20.5411 7.17929ZM11.094 19.9943L17.9998 6.83952L15.5422 5.54934L8.63639 18.7042L11.094 19.9943ZM10.7506 19.4262C11.0423 19.4262 11.2296 19.7361 11.094 19.9943L8.63639 18.7042C7.8017 20.2942 8.95485 22.2019 10.7506 22.2019V19.4262ZM14.4335 19.4262H10.7506V22.2019H14.4335V19.4262ZM15.6409 27.3655L15.8208 20.8524L13.0462 20.7757L12.8662 27.2889L15.6409 27.3655ZM16.7948 27.667C16.4933 28.2412 15.623 28.0139 15.6409 27.3655L12.8662 27.2889C12.7671 30.8769 17.5841 32.1353 19.2524 28.9572L16.7948 27.667ZM23.7006 14.5122L16.7948 27.667L19.2524 28.9572L26.1582 15.8023L23.7006 14.5122ZM24.044 15.0803C23.7523 15.0803 23.565 14.7704 23.7006 14.5122L26.1582 15.8023C26.9929 14.2123 25.8398 12.3046 24.044 12.3046V15.0803ZM20.3611 15.0803H24.044V12.3046H20.3611V15.0803ZM19.1537 7.14096L18.9738 13.6541L21.7484 13.7308L21.9284 7.21762L19.1537 7.14096ZM17.9998 6.83952C18.3013 6.26529 19.1716 6.49264 19.1537 7.14096L21.9284 7.21762C22.0275 3.62961 17.2106 2.37124 15.5422 5.54934L17.9998 6.83952Z" fill="#0063A8" mask="url(#path-2-inside-1_4492_1164)"/>
</svg>
