<svg width="113" height="20" viewBox="0 0 113 20" fill="none" xmlns="http://www.w3.org/2000/svg">
<path d="M3.63526 15.4549C3.95004 15.5565 4.30544 15.6072 4.72177 15.6072C5.23964 15.6072 5.65598 15.4549 5.97076 15.1401C6.28554 14.8253 6.48863 14.409 6.59018 13.9521L0 0H4.38668L8.61089 10.0122L12.3172 0H16.4907L10.5504 13.749C9.76849 15.5666 8.96629 16.9171 8.08287 17.7701C7.19944 18.6535 6.24493 19.0902 5.17872 19.0902C4.81317 19.0902 4.52884 19.0902 4.29529 19.0394C4.03128 19.0089 3.82819 18.9582 3.64541 18.9074L3.14785 18.7551C3.01585 18.7043 2.88384 18.6535 2.76198 18.6231V15.0995C2.99553 15.2518 3.27986 15.3838 3.61495 15.4651L3.63526 15.4549Z" fill="white"/>
<path d="M23.6407 13.3835C23.3767 13.4647 23.0924 13.5155 22.7878 13.5865C22.473 13.6373 22.1379 13.6881 21.8028 13.7185C21.4677 13.7693 21.1326 13.7693 20.8178 13.7693C20.0156 13.7693 19.3353 13.6881 18.7159 13.5662C18.1168 13.4139 17.5989 13.2007 17.1826 12.896C16.7663 12.5813 16.4515 12.1649 16.2484 11.6471C16.0453 11.1495 15.9336 10.5301 15.9336 9.80912V4.8335H19.5079V9.10847C19.5079 9.49434 19.5587 9.83959 19.6602 10.063C19.7415 10.327 19.8938 10.5301 20.0969 10.6824C20.3 10.8347 20.5335 10.9464 20.8483 10.9972C21.1631 11.048 21.5185 11.0784 21.9348 11.0784C22.5542 11.0784 23.0213 11.0276 23.3869 10.9261C23.7524 10.7941 24.0368 10.6621 24.2399 10.5402V4.8335H27.8142V18.6333H24.2399V13.1905C24.0875 13.2413 23.8743 13.3225 23.6204 13.3936L23.6407 13.3835Z" fill="white"/>
<path d="M41.686 16.9073C41.7165 17.1713 41.7875 17.4049 41.8688 17.5267C41.95 17.7095 42.0211 17.8111 42.1328 17.8923C42.2343 17.9735 42.3156 18.0243 42.4476 18.0446V18.6132H38.4772L38.2741 17.9634C38.1726 17.6994 38.1421 17.3947 38.1421 16.9987L37.3399 17.8009C37.0556 18.0345 36.7713 18.2375 36.4362 18.4203C36.1011 18.6031 35.7355 18.7554 35.2989 18.8569C34.8623 18.9585 34.3444 19.0093 33.7453 19.0093C33.1462 19.0093 32.5572 18.928 32.0292 18.7453C31.5113 18.5625 31.0747 18.2782 30.6787 17.9431C30.3131 17.5775 30.0085 17.1409 29.7953 16.5925C29.5922 16.0747 29.4805 15.4552 29.4805 14.7546C29.4805 14.186 29.5617 13.6681 29.7445 13.1705C29.9273 12.673 30.1811 12.2668 30.4959 11.9012C30.831 11.5357 31.227 11.231 31.684 10.9975C32.1511 10.7335 32.6689 10.5812 33.268 10.4999L36.7713 9.98205C36.9033 9.95159 37.0353 9.95159 37.1876 9.90082C37.3399 9.87036 37.4719 9.81958 37.604 9.71804C37.736 9.63681 37.8375 9.53526 37.9187 9.40326C38 9.25094 38.0507 9.06816 38.0507 8.83461C38.0507 8.60106 38 8.39798 37.9492 8.2152C37.868 8.01211 37.7461 7.84964 37.5836 7.71763C37.4009 7.56532 37.1978 7.45362 36.9134 7.38254C36.6291 7.30131 36.2636 7.281 35.8473 7.281C35.3497 7.281 34.9943 7.33177 34.71 7.413C34.3952 7.51455 34.1616 7.67702 34.0093 7.82933C33.8265 8.01211 33.6945 8.2152 33.6234 8.42844L33.4711 9.17986H29.8968C29.8968 9.02754 29.9273 8.794 29.978 8.47921C30.0288 8.19489 30.1304 7.85979 30.2928 7.49424C30.4248 7.15914 30.6584 6.79359 30.9122 6.42803C31.1762 6.06248 31.5113 5.72738 31.9784 5.4126C32.3948 5.12828 32.9431 4.86426 33.5625 4.68148C34.1819 4.49871 34.9131 4.39716 35.7965 4.3667C37.015 4.3667 38.0304 4.49871 38.8022 4.73226C39.5536 4.99627 40.1527 5.33136 40.5893 5.71723C41.0057 6.13356 41.29 6.57019 41.4423 7.06776C41.5743 7.56532 41.6454 8.05273 41.6454 8.55029V15.8614C41.6454 16.2777 41.6758 16.6128 41.7266 16.8769L41.686 16.9073ZM37.3806 12.1855C37.147 12.2871 36.8627 12.3886 36.4971 12.4496L35.5426 12.6323C35.1263 12.7136 34.7607 12.7847 34.4561 12.8963C34.1413 12.9979 33.8874 13.1299 33.6742 13.2822C33.4711 13.465 33.3087 13.6681 33.2071 13.9016C33.1056 14.1352 33.0548 14.4195 33.0548 14.7851C33.0548 15.0694 33.1056 15.3334 33.1868 15.5365C33.2883 15.77 33.4204 15.9223 33.6031 16.0848C33.7555 16.2168 33.9382 16.3488 34.1515 16.3996C34.385 16.4808 34.6186 16.5011 34.8826 16.5011C35.0146 16.5011 35.1974 16.4707 35.4005 16.4504C35.6035 16.4199 35.8168 16.3691 36.0706 16.2981C36.3042 16.1965 36.5377 16.095 36.7713 15.9325C37.0048 15.8005 37.2079 15.5974 37.3907 15.3639C37.5938 15.1303 37.7563 14.846 37.8578 14.4804C37.9594 14.1453 38.0406 13.7493 38.0406 13.2924V11.8911C37.8375 12.0231 37.6039 12.1246 37.3907 12.2059L37.3806 12.1855Z" fill="white"/>
<path d="M51.6968 8.74264C51.5953 8.45832 51.4328 8.22477 51.2602 8.04199C51.0571 7.83891 50.8235 7.7069 50.5595 7.60536C50.2752 7.52412 49.9401 7.47335 49.5441 7.47335C48.945 7.47335 48.4779 7.60536 48.1225 7.88968C47.7569 8.174 47.4726 8.50909 47.2898 8.92542C47.0867 9.36206 46.9751 9.82916 46.904 10.3267C46.8532 10.8243 46.8024 11.2812 46.8024 11.728C46.8024 12.1748 46.8329 12.6622 46.8837 13.1496C46.9344 13.6675 47.036 14.1041 47.2492 14.5205C47.432 14.9368 47.6859 15.3023 48.0819 15.5562C48.4474 15.8405 48.9348 15.9725 49.5644 15.9725C49.9807 15.9725 50.3463 15.8913 50.6509 15.7085C50.9352 15.5562 51.1993 15.343 51.4023 15.1094C51.6054 14.8454 51.7679 14.5915 51.8695 14.3072C51.9507 14.0432 52.0014 13.7894 52.0014 13.5558H55.7383C55.7383 13.7894 55.7078 14.0737 55.6367 14.4392C55.5352 14.8251 55.4031 15.1907 55.2204 15.607C55.0376 15.9928 54.7837 16.4092 54.4893 16.8255C54.1542 17.2418 53.7886 17.6074 53.3215 17.912C52.8544 18.2471 52.3365 18.5111 51.7171 18.7142C51.0977 18.9173 50.3666 19.029 49.5644 19.029C48.5287 19.029 47.5945 18.8767 46.7923 18.5619C45.9901 18.2268 45.3097 17.7597 44.7716 17.1403C44.2232 16.5209 43.8069 15.7694 43.5226 14.8352C43.2383 13.9315 43.0859 12.8856 43.0859 11.728C43.0859 10.5704 43.2383 9.49406 43.553 8.59033C43.8678 7.7069 44.3045 6.93517 44.8731 6.3056C45.4418 5.68618 46.1221 5.21909 46.9243 4.9043C47.7062 4.56921 48.6099 4.40674 49.5746 4.40674C49.9909 4.40674 50.4275 4.45751 50.8946 4.50828C51.3313 4.55905 51.7781 4.69106 52.2147 4.84338C52.6513 5.02615 53.0677 5.22924 53.484 5.49325C53.8699 5.75727 54.2354 6.09236 54.5705 6.47822C54.8853 6.86409 55.1391 7.33119 55.3524 7.84906C55.5555 8.36693 55.6875 8.98635 55.7383 9.687H52.0014C51.9202 9.32144 51.8491 8.98635 51.7171 8.73249L51.6968 8.74264Z" fill="white"/>
<path d="M68.2064 4.82324V7.72738H64.0329V18.623H60.4586V7.72738H56.2852V4.82324H68.2165H68.2064Z" fill="white"/>
<path d="M78.1585 9.80912V4.8335H81.7328V18.6333H78.1585V12.7234H72.8986V18.6333H69.3242V4.8335H72.8986V9.80912H78.1585Z" fill="white"/>
<path d="M87.7618 13.3326L92.7984 4.82324H96.5555V18.623H92.9811V10.2964H92.9304L88.0563 18.623H84.1367V4.82324H87.711V13.3326H87.7618Z" fill="white"/>
<path d="M107.748 4.82314H112.521L106.814 10.5502L112.754 18.6127H108.083L104.042 12.774L102.59 14.2565V18.6127H99.0156V4.81299H102.59V10.0526L107.748 4.81299V4.82314Z" fill="white"/>
</svg>
